<?xml version="1.0" encoding="UTF-8"?><svg id="Layer_1" xmlns="http://www.w3.org/2000/svg" viewBox="0 0 560 1040"><defs><style>.cls-1{fill:#009fe3;}.cls-2,.cls-3{fill:#e6007e;}.cls-4,.cls-5,.cls-6{fill:#fff;}.cls-7{fill:#312783;}.cls-8,.cls-5,.cls-9,.cls-10,.cls-11,.cls-6{stroke:#000;}.cls-8,.cls-12{fill:none;}.cls-8,.cls-6{stroke-width:2px;}.cls-9{fill:#ff0;}.cls-3,.cls-12{stroke:#fff;}.cls-10{fill:red;}.cls-11{fill:lime;}.cls-12{stroke-miterlimit:10;}</style></defs><g pointer-events="all"><rect x="321" y="41" width="198" height="158"/><path class="cls-4" d="M518,42V198h-196V42h196m2-2h-200V200h200V40h0Z"/></g><g pointer-events="all"><rect x="321" y="440.97" width="197.97" height="157.97"/><path class="cls-4" d="M517.97,441.97v155.97h-195.97v-155.97h195.97m2-2h-199.97v159.97h199.97v-159.97h0Z"/></g><g><path class="cls-2" d="M394.99,566.95c-24.53,0-44.49-21.08-44.49-46.99s19.96-46.99,44.49-46.99c8.61,0,16.94,2.59,24.13,7.51-12.31,8.98-19.63,23.69-19.63,39.48s7.33,30.5,19.63,39.48c-7.19,4.92-15.52,7.51-24.13,7.51Z"/><path class="cls-4" d="M394.99,473.46c8.27,0,16.29,2.43,23.26,7.03-12.09,9.11-19.26,23.75-19.26,39.46s7.17,30.35,19.26,39.46c-6.97,4.6-14.99,7.03-23.26,7.03-24.26,0-43.99-20.86-43.99-46.49s19.73-46.49,43.99-46.49m0-1c-24.85,0-44.99,21.26-44.99,47.49s20.14,47.49,44.99,47.49c9.25,0,17.85-2.95,25-8-12.06-8.52-20-23.02-20-39.49s7.94-30.97,20-39.49c-7.15-5.05-15.75-8-25-8h0Z"/></g><g><path class="cls-1" d="M444.98,566.95c-8.61,0-16.94-2.59-24.13-7.51,12.31-8.98,19.63-23.69,19.63-39.48s-7.32-30.5-19.63-39.48c7.19-4.92,15.52-7.51,24.13-7.51,24.53,0,44.49,21.08,44.49,46.99s-19.96,46.99-44.49,46.99Z"/><path class="cls-4" d="M444.98,473.46c24.26,0,43.99,20.86,43.99,46.49s-19.73,46.49-43.99,46.49c-8.27,0-16.29-2.43-23.26-7.03,12.09-9.11,19.26-23.75,19.26-39.46s-7.17-30.35-19.26-39.46c6.97-4.6,14.99-7.03,23.26-7.03m0-1c-9.25,0-17.85,2.95-25,8,12.06,8.52,20,23.02,20,39.49s-7.94,30.97-20,39.49c7.15,5.05,15.75,8,25,8,24.85,0,44.99-21.26,44.99-47.49s-20.14-47.49-44.99-47.49h0Z"/></g><g><path class="cls-7" d="M419.98,558.83c-12.21-8.78-19.5-23.28-19.5-38.88s7.28-30.1,19.5-38.88c12.21,8.78,19.5,23.28,19.5,38.88s-7.28,30.1-19.5,38.88Z"/><path class="cls-4" d="M419.98,481.7c11.91,8.7,19,22.95,19,38.26s-7.09,29.55-19,38.26c-11.91-8.7-19-22.95-19-38.26s7.09-29.55,19-38.26m0-1.23c-12.06,8.52-20,23.02-20,39.49s7.94,30.97,20,39.49c12.06-8.52,20-23.02,20-39.49s-7.94-30.97-20-39.49h0Z"/></g><g pointer-events="all"><rect x="321" y="640.93" width="197.97" height="157.97"/><path class="cls-4" d="M517.97,641.93v155.97h-195.97v-155.97h195.97m2-2h-199.97v159.97h199.97v-159.97h0Z"/></g><g pointer-events="all"><rect x="321" y="241" width="197.97" height="158"/><path class="cls-4" d="M517.97,242v156h-195.97V242h195.97m2-2h-199.97v160h199.97V240h0Z"/></g><g pointer-events="all"><ellipse class="cls-2" cx="419.98" cy="320" rx="44.49" ry="47"/><path class="cls-4" d="M419.98,273.5c24.26,0,43.99,20.86,43.99,46.5s-19.73,46.5-43.99,46.5-43.99-20.86-43.99-46.5,19.73-46.5,43.99-46.5m0-1c-24.85,0-44.99,21.27-44.99,47.5s20.14,47.5,44.99,47.5,44.99-21.27,44.99-47.5-20.14-47.5-44.99-47.5h0Z"/></g><g pointer-events="stroke"><path class="cls-2" d="M419.48,766.91c-24.3-.28-43.99-21.25-43.99-46.99s19.69-46.71,43.99-46.99v93.98Z"/><path class="cls-4" d="M418.98,673.44v92.96c-23.8-.56-42.99-21.2-42.99-46.48s19.2-45.92,42.99-46.48m1-1.01c-24.85,0-44.99,21.26-44.99,47.49s20.14,47.49,44.99,47.49v-94.98h0Z"/></g><g pointer-events="stroke"><path class="cls-1" d="M420.48,672.93c24.3,.28,43.99,21.25,43.99,46.99s-19.69,46.71-43.99,46.99v-93.98Z"/><path class="cls-4" d="M420.98,673.44c23.8,.56,42.99,21.2,42.99,46.48s-19.2,45.92-42.99,46.48v-92.96m-1-1.01v94.98c24.85,0,44.99-21.26,44.99-47.49s-20.14-47.49-44.99-47.49h0Z"/></g><polyline class="cls-10" pointer-events="all" points="139.98 872.39 139.98 839.9 239.97 839.9 239.97 999.87 139.98 999.87 139.98 967.38"/><rect class="cls-5" x="40" y="439.97" width="199.97" height="159.97" pointer-events="all"/><g><path class="cls-10" d="M119.99,519.95c0-16.47,7.94-30.97,20-39.49-7.15-5.05-15.75-8-25-8-24.85,0-44.99,21.26-44.99,47.49s20.14,47.49,44.99,47.49c9.25,0,17.85-2.95,25-8-12.06-8.52-20-23.02-20-39.49Z"/><path class="cls-11" d="M164.98,472.46c-9.25,0-17.85,2.95-25,8,12.06,8.52,20,23.02,20,39.49s-7.94,30.97-20,39.49c7.15,5.05,15.75,8,25,8,24.85,0,44.99-21.26,44.99-47.49s-20.14-47.49-44.99-47.49Z"/><path class="cls-9" d="M159.98,519.95c0-16.47-7.94-30.97-20-39.49-12.06,8.52-20,23.02-20,39.49s7.94,30.97,20,39.49c12.06-8.52,20-23.02,20-39.49Z"/></g><rect class="cls-5" x="40" y="639.93" width="199.97" height="159.97" pointer-events="all"/><polyline class="cls-5" pointer-events="all" points="139.98 967.38 139.98 999.87 40 999.87 40 839.9 139.98 839.9 139.98 872.39"/><ellipse class="cls-11" cx="139.98" cy="919.89" rx="44.99" ry="47.49" pointer-events="all"/><rect class="cls-5" x="40" y="240" width="199.97" height="160" pointer-events="all"/><ellipse class="cls-10" cx="139.98" cy="320" rx="44.99" ry="47.5" pointer-events="all"/><path class="cls-10" d="M139.98,767.41v-94.98c-24.85,0-44.99,21.26-44.99,47.49s20.14,47.49,44.99,47.49Z" pointer-events="stroke"/><path class="cls-11" d="M184.98,719.92c0-26.23-20.14-47.49-44.99-47.49v94.98c24.85,0,44.99-21.26,44.99-47.49Z" pointer-events="stroke"/><rect class="cls-6" x="40" y="38.39" width="200" height="160" pointer-events="all"/><ellipse class="cls-8" cx="140" cy="118.39" rx="52.5" ry="53.75" pointer-events="all"/><ellipse class="cls-8" cx="140" cy="118.39" rx="27.5" ry="28.75" pointer-events="all"/><ellipse class="cls-12" cx="420" cy="120" rx="52.5" ry="53.75" pointer-events="all"/><ellipse class="cls-3" cx="420" cy="120" rx="27.5" ry="28.75" pointer-events="all"/><g pointer-events="all"><path d="M520,40V200h-200V40h200m2-2h-204V202h204V38h0Z"/></g><g pointer-events="all"><path d="M520,240v160h-200V240h200m1-1h-202v162h202V239h0Z"/></g><g pointer-events="all"><path d="M520,440v160h-200v-160h200m1-1h-202v162h202v-162h0Z"/></g><g pointer-events="all"><path d="M520,640v160h-200v-160h200m1-1h-202v162h202v-162h0Z"/></g><g pointer-events="all"><path d="M520,839.89v160h-200v-160h200m1-1h-202v162h202v-162h0Z"/></g><g><path d="M321,998.87v-157.97h97.98v30.51c-24.9,.56-44.99,22.09-44.99,48.48s20.09,47.92,44.99,48.48v30.51h-97.98Z"/><path class="cls-4" d="M417.98,841.9v28.54c-24.99,1.11-44.99,22.86-44.99,49.45s20.01,48.34,44.99,49.45v28.54h-95.98v-155.97h95.98m2-2h-99.98v159.97h99.98v-32.49c-24.85,0-44.99-21.26-44.99-47.49s20.14-47.49,44.99-47.49v-32.49h0Z"/></g><g><path class="cls-2" d="M421,998.87v-30.51c24.9-.56,44.99-22.09,44.99-48.48s-20.09-47.92-44.99-48.48v-30.51h97.98v157.97h-97.98Z"/><path class="cls-4" d="M517.98,841.9v155.97h-95.98v-28.54c24.99-1.11,44.99-22.86,44.99-49.45s-20.01-48.34-44.99-49.45v-28.54h95.98m2-2h-99.98v32.49c24.85,0,44.99,21.26,44.99,47.49s-20.14,47.49-44.99,47.49v32.49h99.98v-159.97h0Z"/></g><g pointer-events="all"><ellipse class="cls-1" cx="419.98" cy="919.89" rx="44.49" ry="46.99"/><path class="cls-4" d="M419.98,873.39c24.26,0,43.99,20.86,43.99,46.49s-19.73,46.49-43.99,46.49-43.99-20.86-43.99-46.49,19.73-46.49,43.99-46.49m0-1c-24.85,0-44.99,21.26-44.99,47.49s20.14,47.49,44.99,47.49,44.99-21.26,44.99-47.49-20.14-47.49-44.99-47.49h0Z"/></g></svg>