<?xml version="1.0" encoding="UTF-8"?><svg id="Layer_1" xmlns="http://www.w3.org/2000/svg" viewBox="0 0 521 841"><defs><style>.cls-1,.cls-2,.cls-3,.cls-4{stroke:#fff;}.cls-2{fill:#312783;}.cls-5{fill:#fff;}.cls-5,.cls-6,.cls-7,.cls-8{stroke:#000;}.cls-6{fill:#ff0;}.cls-3{fill:#e6007e;}.cls-7{fill:red;}.cls-8{fill:lime;}.cls-4{fill:#009fe3;}</style></defs><rect class="cls-1" x="240.5" y=".5" width="280" height="840"/><polyline class="cls-3" pointer-events="all" points="380.48 672.89 380.48 640.4 480.47 640.4 480.47 800.37 380.48 800.37 380.48 767.88"/><rect class="cls-1" x="280.5" y="240.47" width="199.97" height="159.97" pointer-events="all"/><path class="cls-3" d="M360.49,320.45c0-16.47,7.94-30.97,20-39.49-7.15-5.05-15.75-8-25-8-24.85,0-44.99,21.26-44.99,47.49s20.14,47.49,44.99,47.49c9.25,0,17.85-2.95,25-8-12.06-8.52-20-23.02-20-39.49Z"/><path class="cls-4" d="M405.48,272.96c-9.25,0-17.85,2.95-25,8,12.06,8.52,20,23.02,20,39.49s-7.94,30.97-20,39.49c7.15,5.05,15.75,8,25,8,24.85,0,44.99-21.26,44.99-47.49s-20.14-47.49-44.99-47.49Z"/><path class="cls-2" d="M400.48,320.45c0-16.47-7.94-30.97-20-39.49-12.06,8.52-20,23.02-20,39.49s7.94,30.97,20,39.49c12.06-8.52,20-23.02,20-39.49Z"/><rect class="cls-1" x="280.5" y="440.43" width="199.97" height="159.97" pointer-events="all"/><polyline class="cls-1" pointer-events="all" points="380.48 767.88 380.48 800.37 280.5 800.37 280.5 640.4 380.48 640.4 380.48 672.89"/><ellipse class="cls-4" cx="380.48" cy="720.39" rx="44.99" ry="47.49" pointer-events="all"/><rect class="cls-1" x="280.5" y="40.5" width="199.97" height="160" pointer-events="all"/><ellipse class="cls-3" cx="380.48" cy="120.5" rx="44.99" ry="47.5" pointer-events="all"/><path class="cls-3" d="M380.48,567.91v-94.98c-24.85,0-44.99,21.26-44.99,47.49s20.14,47.49,44.99,47.49Z" pointer-events="stroke"/><path class="cls-4" d="M425.48,520.42c0-26.23-20.14-47.49-44.99-47.49v94.98c24.85,0,44.99-21.26,44.99-47.49Z" pointer-events="stroke"/><polyline class="cls-7" pointer-events="all" points="100.48 672.89 100.48 640.4 200.47 640.4 200.47 800.37 100.48 800.37 100.48 767.88"/><rect class="cls-5" x=".5" y="240.47" width="199.97" height="159.97" pointer-events="all"/><g><path class="cls-7" d="M80.49,320.45c0-16.47,7.94-30.97,20-39.49-7.15-5.05-15.75-8-25-8-24.85,0-44.99,21.26-44.99,47.49s20.14,47.49,44.99,47.49c9.25,0,17.85-2.95,25-8-12.06-8.52-20-23.02-20-39.49Z"/><path class="cls-8" d="M125.48,272.96c-9.25,0-17.85,2.95-25,8,12.06,8.52,20,23.02,20,39.49s-7.94,30.97-20,39.49c7.15,5.05,15.75,8,25,8,24.85,0,44.99-21.26,44.99-47.49s-20.14-47.49-44.99-47.49Z"/><path class="cls-6" d="M120.48,320.45c0-16.47-7.94-30.97-20-39.49-12.06,8.52-20,23.02-20,39.49s7.94,30.97,20,39.49c12.06-8.52,20-23.02,20-39.49Z"/></g><rect class="cls-5" x=".5" y="440.43" width="199.97" height="159.97" pointer-events="all"/><polyline class="cls-5" pointer-events="all" points="100.48 767.88 100.48 800.37 .5 800.37 .5 640.4 100.48 640.4 100.48 672.89"/><ellipse class="cls-8" cx="100.48" cy="720.39" rx="44.99" ry="47.49" pointer-events="all"/><rect class="cls-5" x=".5" y="40.5" width="199.97" height="160" pointer-events="all"/><ellipse class="cls-7" cx="100.48" cy="120.5" rx="44.99" ry="47.5" pointer-events="all"/><path class="cls-7" d="M100.48,567.91v-94.98c-24.85,0-44.99,21.26-44.99,47.49s20.14,47.49,44.99,47.49Z" pointer-events="stroke"/><path class="cls-8" d="M145.48,520.42c0-26.23-20.14-47.49-44.99-47.49v94.98c24.85,0,44.99-21.26,44.99-47.49Z" pointer-events="stroke"/></svg>